<svg width="40" height="48" viewBox="0 0 40 48" fill="none" xmlns="http://www.w3.org/2000/svg">
  <path class="triangle" d="M11,36.8l-5.5,5.5L0,36.8H11z" fill="#48DAD0"></path>
  <path class="HERE" d="M19.1,24.2c-1.2-1.4-1.1-2.1-0.4-2.8c0.9-0.9,1.7-0.5,2.7,0.5L19.1,24.2z M30.9,9.2c0.9-0.9,1.7-0.5,2.7,0.5
	L31.3,12C30.1,10.7,30.2,9.9,30.9,9.2z M38,11.6c-1.1,1.6-2.9,4.2-4.9,2.2l5-5c-0.4-0.5-0.8-0.9-1-1.1c-2.7-2.7-5.7-2.7-8-0.4
	c-1.6,1.6-2,3.4-1.5,5.1l-1.6-1.8c-0.5,0.3-2.4,1.9-0.9,4.5l-1.8-1.5l-2.4,2.4l3.2,3.2c-2.5-1.9-5.1-1.8-7.2,0.4
	c-2.3,2.3-2.1,5-0.4,7.3l-0.3-0.3c-2.3-2.3-4.7-1.5-5.9-0.3c-0.9,0.9-1.5,2.2-1.3,3.1L4,24.6l-2.6,2.6l9.6,9.6h5.2l-3.5-3.5
	c-1.8-1.8-1.8-2.8-1-3.7c0.8-0.8,1.8-0.3,3.6,1.4l3.4,3.4l2.6-2.6l-3.2-3.2c2.3,1.8,5.1,1.9,7.7-0.6l0,0c1.5-1.4,2-2.8,2-2.8
	l-1.9-1.3c-1.1,1.6-2.9,4.2-4.9,2.3l5-5l3.1,3.1l2.7-2.7l-3.9-3.9c-1.8-1.8-0.7-3.5,0-4.1c0.4,0.7,0.9,1.5,1.5,2.1
	c2.5,2.5,5.7,3,8.6,0.2l0,0c1.5-1.4,2-2.8,2-2.8S38,11.6,38,11.6z"></path>
</svg>