<svg width="40" height="48" viewBox="0 0 40 48" fill="none" xmlns="http://www.w3.org/2000/svg">
<path d="M11 36.7998L5.5 42.2998L0 36.7998H11Z" fill="#48DAD0"/>
<path d="M19.1004 24.2001C17.9004 22.8001 18.0004 22.1001 18.7004 21.4001C19.6004 20.5001 20.4004 20.9001 21.4004 21.9001L19.1004 24.2001ZM30.9004 9.20007C31.8004 8.30007 32.6004 8.70007 33.6004 9.70007L31.3004 12.0001C30.1004 10.7001 30.2004 9.90007 30.9004 9.20007ZM38.0004 11.6001C36.9004 13.2001 35.1004 15.8001 33.1004 13.8001L38.1004 8.80007C37.7004 8.30007 37.3004 7.90007 37.1004 7.70007C34.4004 5.00007 31.4004 5.00007 29.1004 7.30007C27.5004 8.90007 27.1004 10.7001 27.6004 12.4001L26.0004 10.6001C25.5004 10.9001 23.6004 12.5001 25.1004 15.1001L23.3004 13.6001L20.9004 16.0001L24.1004 19.2001C21.6004 17.3001 19.0004 17.4001 16.9004 19.6001C14.6004 21.9001 14.8004 24.6001 16.5004 26.9001L16.2004 26.6001C13.9004 24.3001 11.5004 25.1001 10.3004 26.3001C9.40039 27.2001 8.80039 28.5001 9.00039 29.4001L4.00039 24.6001L1.40039 27.2001L11.0004 36.8001H16.2004L12.7004 33.3001C10.9004 31.5001 10.9004 30.5001 11.7004 29.6001C12.5004 28.8001 13.5004 29.3001 15.3004 31.0001L18.7004 34.4001L21.3004 31.8001L18.1004 28.6001C20.4004 30.4001 23.2004 30.5001 25.8004 28.0001C27.3004 26.6001 27.8004 25.2001 27.8004 25.2001L25.9004 23.9001C24.8004 25.5001 23.0004 28.1001 21.0004 26.2001L26.0004 21.2001L29.1004 24.3001L31.8004 21.6001L27.9004 17.7001C26.1004 15.9001 27.2004 14.2001 27.9004 13.6001C28.3004 14.3001 28.8004 15.1001 29.4004 15.7001C31.9004 18.2001 35.1004 18.7001 38.0004 15.9001C39.5004 14.5001 40.0004 13.1001 40.0004 13.1001L38.0004 11.6001Z" fill="white"/>
</svg>
