<svg width="74" height="120" viewBox="0 0 74 120" fill="none" xmlns="http://www.w3.org/2000/svg">
<path d="M57.9004 119.859V68.7682C57.9004 66.7212 58.3036 64.6944 59.0869 62.8033C59.8702 60.9122 61.0183 59.1939 62.4657 57.7465C63.9131 56.2991 65.6314 55.151 67.5225 54.3676C69.4136 53.5843 71.4405 53.1812 73.4874 53.1812V104.272C73.4874 106.319 73.0842 108.346 72.3009 110.237C71.5175 112.128 70.3694 113.846 68.922 115.293C67.4746 116.741 65.7563 117.889 63.8652 118.672C61.9741 119.455 59.9473 119.859 57.9004 119.859Z" fill="#A6332E"/>
<path d="M65.4341 46.6909C64.2556 46.6917 63.1034 46.343 62.1231 45.6888C61.1428 45.0347 60.3785 44.1045 59.9269 43.0159C59.4753 41.9274 59.3567 40.7294 59.5861 39.5734C59.8154 38.4174 60.3825 37.3554 61.2154 36.5217C62.0484 35.6881 63.1099 35.1201 64.2657 34.8898C65.4215 34.6595 66.6196 34.7771 67.7086 35.2278C68.7975 35.6784 69.7283 36.4419 70.3833 37.4217C71.0382 38.4014 71.3879 39.5534 71.3881 40.7319C71.3881 42.3115 70.761 43.8264 69.6446 44.9438C68.5281 46.0612 67.0137 46.6896 65.4341 46.6909ZM15.9091 32.7139C15.8865 30.7555 15.4629 28.8225 14.6645 27.034C13.8661 25.2456 12.7097 23.6397 11.2668 22.3154C9.82382 20.9911 8.12487 19.9764 6.27469 19.3339C4.4245 18.6915 2.46232 18.4349 0.50914 18.5799C0.327619 18.5966 0.151898 18.6526 -0.00585938 18.7439V81.9159C0.0127542 83.9551 0.445417 85.9693 1.26588 87.8363C2.08635 89.7033 3.27753 91.3841 4.76715 92.7769C7.77265 95.6206 11.7576 97.198 15.8951 97.1819C15.8951 97.1819 15.8951 50.1639 15.9041 48.3739H29.0311C29.0311 62.2439 29.0611 80.4549 29.0611 95.2979C29.0561 99.5795 30.7514 103.688 33.7743 106.72C36.7973 109.752 40.9005 111.46 45.1821 111.468V48.3739H73.3711V32.7139H15.9091Z" fill="#B03633"/>
<path d="M15.2434 7.61C15.2436 6.10513 14.7975 4.63399 13.9617 3.3826C13.1258 2.13122 11.9376 1.1558 10.5474 0.579683C9.15715 0.00356334 7.62731 -0.14738 6.1513 0.14594C4.67529 0.43926 3.31939 1.16367 2.25508 2.22757C1.19076 3.29146 0.465818 4.64707 0.171917 6.12297C-0.121985 7.59887 0.0283523 9.12877 0.603923 10.5192C1.17949 11.9097 2.15445 13.0982 3.4055 13.9346C4.65655 14.771 6.12751 15.2176 7.63238 15.218C8.63169 15.2183 9.62128 15.0217 10.5446 14.6395C11.4679 14.2573 12.3069 13.6969 13.0137 12.9904C13.7205 12.284 14.2811 11.4452 14.6637 10.522C15.0463 9.59882 15.2433 8.60931 15.2434 7.61Z" fill="#B03633"/>
<path d="M73.4874 53.0532C71.4404 53.0531 69.4135 53.4562 67.5223 54.2394C65.6312 55.0227 63.9128 56.1708 62.4654 57.6183C61.018 59.0657 59.8699 60.784 59.0866 62.6752C58.3033 64.5663 57.9003 66.5933 57.9004 68.6402V68.7682C57.8979 66.4617 58.4086 64.1836 59.3955 62.0989C60.3824 60.0142 61.8208 58.1752 63.6064 56.7152C66.2641 54.4711 69.6192 53.2204 73.0974 53.1772C73.2284 53.1772 73.3294 53.1772 73.3974 53.1832H73.4884V53.0532H73.4874Z" fill="#D9AE9E"/>
<path d="M73.4874 53.1891L63.3354 75.4751L73.4574 89.5461L66.6084 102.928L71.4644 111.828C72.795 109.486 73.4925 106.837 73.4884 104.143L73.4874 53.1891ZM63.6064 56.7131C61.8208 58.1733 60.3824 60.0125 59.3955 62.0974C58.4086 64.1822 57.8979 66.4605 57.9004 68.7671V73.7821C57.9004 72.3651 57.9134 70.9561 57.9334 69.6201V67.9651L57.9594 68.0041C57.9664 67.7511 57.9714 67.5041 57.9764 67.2591C59.0114 62.0701 61.1954 58.7891 63.6064 56.7161M57.9004 76.1161V119.735H57.9334V81.3201C57.9184 79.7391 57.9054 77.9531 57.9004 76.1141" fill="#A6332E"/>
<path d="M57.9317 67.9644V69.6194C57.9387 69.0674 57.9517 68.5194 57.9607 68.0034L57.9317 67.9644ZM63.3317 75.4754L58.0067 87.1654C58.0067 87.1654 57.9637 84.7144 57.9297 81.3204V119.733L58.0067 87.1654L66.6067 102.928L73.4597 89.5464L63.3317 75.4754Z" fill="#95332F"/>
<path d="M71.4996 111.896C70.2 114.208 68.3347 116.151 66.0786 117.545C68.3879 116.233 70.2758 114.291 71.5216 111.945L71.4996 111.896ZM58.1866 119.858H57.9316V119.864C57.9316 119.864 58.0216 119.864 58.1876 119.857" fill="#C09F97"/>
<path d="M71.4626 111.831C70.1111 114.215 68.155 116.2 65.7916 117.587C63.4282 118.974 60.7409 119.714 58.0006 119.731L57.9316 119.857H58.1866C60.9586 119.696 63.6572 118.905 66.0776 117.544C68.3345 116.151 70.2003 114.206 71.4996 111.894L71.4626 111.831Z" fill="#983230"/>
<path d="M66.607 102.93L58 119.73C60.7408 119.713 63.4286 118.974 65.7926 117.587C68.1566 116.2 70.1131 114.214 71.465 111.83L66.607 102.93Z" fill="#983230"/>
<path d="M58.0096 87.165L57.9336 119.733H58.0026L66.6026 102.933L58.0096 87.165Z" fill="#8C3230"/>
<path d="M73.0905 53.1813C69.6137 53.2254 66.2602 54.476 63.6035 56.7193C66.3611 54.4481 69.8181 53.1984 73.3905 53.1813C73.3235 53.1813 73.2225 53.1753 73.0905 53.1753" fill="#BD8A7D"/>
<path d="M73.3974 53.1821C69.8245 53.1971 66.3664 54.4451 63.6073 56.7151C61.1973 58.7881 59.0073 62.0691 57.9773 67.2571C57.9713 67.5021 57.9673 67.7501 57.9623 68.0021L63.3363 75.4751L73.4883 53.1891H73.3974M57.9333 69.6251C57.9143 70.9591 57.9063 72.3681 57.9023 73.7881V76.1211C57.9023 77.9591 57.9173 79.7451 57.9333 81.3211V69.6251Z" fill="#9D312E"/>
<path d="M57.9586 68.0024C57.9496 68.5264 57.9386 69.0654 57.9316 69.6184V81.3184C57.9636 84.7124 58.0086 87.1634 58.0086 87.1634L63.3336 75.4704L57.9586 68.0024Z" fill="#903231"/>
<mask id="mask0_284_103" style="mask-type:luminance" maskUnits="userSpaceOnUse" x="0" y="0" width="16" height="16">
<path d="M0.0273438 7.60893C0.027146 9.11349 0.473121 10.5843 1.30887 11.8354C2.14462 13.0865 3.3326 14.0617 4.72258 14.6376C6.11256 15.2135 7.6421 15.3643 9.11778 15.0709C10.5935 14.7775 11.949 14.0531 13.013 12.9892C14.0769 11.9254 14.8015 10.57 15.0951 9.09435C15.3887 7.61871 15.2381 6.08914 14.6624 4.69909C14.0867 3.30903 13.1117 2.12092 11.8607 1.28501C10.6097 0.449095 9.13892 0.0029297 7.63435 0.00292969C5.61719 0.00345974 3.68276 0.804943 2.25632 2.2312C0.829872 3.65746 0.0281391 5.59176 0.0273438 7.60893Z" fill="white"/>
</mask>
<g mask="url(#mask0_284_103)">
<path d="M7.6346 0.00295528C5.6419 0.000157391 3.72834 0.782676 2.30859 2.18095L5.68359 8.36896L9.80559 0.318953C9.10104 0.107507 8.36918 0.00103216 7.63359 0.00295528" fill="#9A3333"/>
<path d="M5.68047 8.36914L2.98047 13.6321C3.84577 14.2976 4.84386 14.7696 5.90727 15.0161C6.97068 15.2626 8.07462 15.278 9.14447 15.0611C9.17347 15.0061 9.20647 14.9491 9.23547 14.8941L5.68047 8.36914Z" fill="#9D3433"/>
<path d="M2.308 2.18115C1.53101 2.94203 0.926359 3.86079 0.534887 4.87538C0.143414 5.88997 -0.0257616 6.97677 0.038793 8.06234C0.103348 9.14792 0.400123 10.207 0.909078 11.168C1.41803 12.1291 2.12731 12.9697 2.989 13.6332L5.689 8.37016L2.308 2.18115Z" fill="#903332"/>
</g>
<mask id="mask1_284_103" style="mask-type:luminance" maskUnits="userSpaceOnUse" x="0" y="18" width="74" height="94">
<path d="M59.8344 41.966C59.7473 41.5595 59.7034 41.1448 59.7034 40.729L59.7164 40.372C59.7902 39.1588 60.2334 37.9972 60.9864 37.0431C61.7395 36.089 62.7664 35.3881 63.9293 35.0344C65.0922 34.6808 66.3354 34.6914 67.4921 35.0647C68.6488 35.438 69.6637 36.1563 70.4004 37.123V37.132C71.1921 38.1646 71.6184 39.4309 71.6124 40.732C71.6134 42.2047 71.0688 43.6255 70.0837 44.7202C69.0986 45.8149 67.7429 46.5058 66.2783 46.6596C64.8136 46.8134 63.344 46.419 62.153 45.5528C60.9621 44.6866 60.1342 43.4098 59.8294 41.969M2.04341 18.399H1.89241C1.53841 18.425 1.2304 18.525 0.848404 18.555L0.484406 18.685L0.455399 18.698L0.441406 18.742V81.915C0.441406 82.179 0.449401 82.439 0.464401 82.702L0.492401 83.069C0.76861 86.7612 2.40825 90.2187 5.09241 92.769C8.06285 95.6031 11.9943 97.2104 16.0994 97.269V97.141C16.0994 94.38 16.1134 50.116 16.1264 48.373H29.0754V95.386C29.1441 99.6342 30.8639 103.689 33.8704 106.691C36.877 109.693 40.9341 111.407 45.1824 111.469V48.369H73.3704V32.713H16.1334C16.1005 29.3344 14.891 26.0729 12.713 23.4898C10.5351 20.9066 7.52488 19.1634 4.20041 18.56C3.98041 18.526 3.76141 18.497 3.53841 18.471C3.058 18.4213 2.57538 18.396 2.09241 18.395L2.04341 18.399Z" fill="white"/>
</mask>
<g mask="url(#mask1_284_103)">
<path d="M65.6633 46.69C64.2974 46.6896 62.9732 46.2201 61.9119 45.3602C60.8507 44.5003 60.1169 43.3021 59.8333 41.966C59.7464 41.5598 59.7028 41.1455 59.7033 40.73L59.7183 40.371C59.7913 39.1575 60.2339 37.9953 60.9868 37.0407C61.7397 36.0861 62.7667 35.3849 63.9299 35.0311C65.093 34.6774 66.3366 34.6881 67.4934 35.0619C68.6503 35.4357 69.665 36.1546 70.4013 37.122V37.133C71.1925 38.1658 71.6185 39.432 71.6123 40.733C71.6125 41.7178 71.3687 42.6873 70.9025 43.5547C70.4364 44.4222 69.7626 45.1607 68.9413 45.704C67.9688 46.3517 66.8257 46.6956 65.6573 46.692M16.3563 32.713C16.2987 29.3069 15.0524 26.028 12.833 23.4435C10.6136 20.8591 7.56066 19.1316 4.20232 18.56C3.98032 18.525 3.76131 18.499 3.53931 18.471C3.05864 18.4203 2.57565 18.3949 2.09232 18.395H2.05031H1.89731C1.59731 18.427 1.27331 18.522 0.966309 18.551C0.800886 18.571 0.639222 18.6148 0.486313 18.681L0.45932 18.694L0.445312 18.737V81.909C0.445312 82.175 0.453307 82.436 0.468307 82.697L0.496307 83.065C0.830858 86.751 2.51493 90.1836 5.22531 92.704C8.14817 95.5245 12.0446 97.1116 16.1063 97.136H16.1203L16.3543 97.113C16.3543 97.113 16.3433 50.157 16.3543 48.367H29.5263V95.381C29.5285 99.5721 31.1663 103.597 34.0911 106.599C37.0159 109.6 40.9967 111.342 45.1863 111.453H45.3973H45.6343V48.373H73.8253V32.713H16.3563Z" fill="#B03633"/>
<path d="M38.2337 65.0991L30.0137 81.1521L36.8657 94.5301L45.1887 79.2701V78.2551L38.2337 65.0991Z" fill="#9A3333"/>
<path d="M29.5302 48.5581H29.4902L29.5302 48.6381V48.5581Z" fill="#A53835"/>
<path d="M45.1222 48.5581H29.5312V48.6381L38.2312 65.0991L45.1953 51.5161V48.5961L45.1222 48.5581Z" fill="#A53835"/>
<path d="M45.1874 51.5142L38.2324 65.0952L45.1874 78.2592V51.5142Z" fill="#933534"/>
<path d="M36.8643 94.5303L31.9473 103.546C35.6753 110.561 43.4523 111.366 45.1913 111.459V110.79L36.8643 94.5303Z" fill="#9D3433"/>
<path d="M45.1883 79.27L36.8633 94.53L45.1883 110.783V79.27Z" fill="#903332"/>
<path d="M47.2281 33.1602H45.6781L31.4941 40.6602L45.1191 48.5602H45.1871V48.3742H45.8491L59.8311 41.9652C59.7443 41.5589 59.7007 41.1446 59.7011 40.7292L59.7161 40.3722L47.2281 33.1602Z" fill="#9A3333"/>
<path d="M45.189 48.5581H45.123L45.189 48.5961V48.5581Z" fill="#933534"/>
<path d="M46.4944 32.73L16.3594 33.063V48.374H16.9074L31.4944 40.66L18.5554 33.16H45.6824L46.4944 32.73Z" fill="#A53835"/>
<path d="M45.6817 33.1602H18.5547L31.4937 40.6602L45.6817 33.1602Z" fill="#933534"/>
<path d="M73.378 32.7144H57.646L46.498 32.7404L46.783 32.9064L47.118 33.0994L47.228 33.1614H73.378V32.7144ZM73.378 35.7734L70.407 37.1344C71.1982 38.1672 71.6245 39.4333 71.619 40.7344C71.6196 41.7194 71.376 42.6891 70.9101 43.557C70.4441 44.4248 69.7704 45.1636 68.949 45.7074L73.377 48.2664L73.378 35.7734Z" fill="#9D3433"/>
<path d="M73.3766 33.1602H47.2266L59.7166 40.3722C59.7905 39.159 60.2338 37.9975 60.987 37.0436C61.7401 36.0896 62.767 35.3889 63.9298 35.0353C65.0927 34.6818 66.3359 34.6925 67.4925 35.0658C68.6491 35.4392 69.6639 36.1575 70.4006 37.1242V37.1322L73.3716 35.7712L73.3766 33.1602Z" fill="#903332"/>
<path d="M8.07199 53.9463L0.833984 65.1633L7.94298 79.8633L16.119 64.8743C16.119 64.7073 16.119 64.5333 16.119 64.3663L8.07199 53.9463Z" fill="#9A3333"/>
<path d="M16.2812 41.7021V48.3742H16.3593V41.8131L16.2812 41.7021Z" fill="#933534"/>
<path d="M15.899 97.1411V97.1811C15.531 97.1811 15.16 97.1671 14.793 97.1421C15.393 97.2231 15.846 97.2511 16.109 97.2631V97.1421L15.899 97.1411Z" fill="#C09F97"/>
<path d="M13.2559 96.875C13.8279 96.999 14.3479 97.085 14.7919 97.142C15.1579 97.166 15.5239 97.179 15.8979 97.179V97.138C15.0112 97.1272 14.1271 97.0399 13.2559 96.875Z" fill="#9D3433"/>
<path d="M7.94061 79.8633L2.76562 89.3473C3.85582 91.2942 5.36094 92.9774 7.1743 94.2777C8.98766 95.578 11.0649 96.4634 13.2586 96.8713C14.1286 97.039 15.0117 97.1294 15.8976 97.1413H16.1076V96.7493L7.94061 79.8633Z" fill="#9D3433"/>
<path d="M16.1204 64.8711L7.94141 79.8611L16.1064 96.7481C16.1064 93.6681 16.1124 77.6481 16.1204 64.8691" fill="#903332"/>
<path d="M1.89818 18.4014C1.54818 18.4274 1.24219 18.5244 0.867188 18.5564C0.935188 18.5564 1.00218 18.5484 1.07318 18.5464C1.34718 18.5094 1.63019 18.4294 1.89919 18.4014" fill="#BB938A"/>
<path d="M1.06989 18.544L0.869888 18.556H0.853882L0.712891 18.606C0.79555 18.5817 0.880217 18.565 0.965881 18.556L1.06589 18.543" fill="#9A3333"/>
<path d="M2.09721 18.3961H2.04921H1.89722C1.62822 18.4241 1.34721 18.5011 1.07321 18.5401L0.967209 18.5531C0.881543 18.5622 0.796875 18.5789 0.714218 18.6031L0.487213 18.6821L0.461212 18.6951L0.449219 18.7381L8.74921 30.7781L13.0062 23.8431C10.8329 21.0436 7.69173 19.1575 4.19922 18.5551C3.98122 18.5201 3.76022 18.4941 3.53722 18.4661C3.05823 18.4154 2.57689 18.39 2.09521 18.3901M16.3582 32.7071H16.2802V33.0571H16.3582V32.7071Z" fill="#9A3333"/>
<path d="M16.3593 33.063H16.2812V41.228L16.3593 41.109V33.063Z" fill="#933534"/>
<path d="M16.3593 41.1069L16.2812 41.2269V41.7019L16.3593 41.8119V41.1069Z" fill="#893332"/>
<path d="M8.75226 30.7832L0.53125 44.1832L8.07326 53.9502L16.1283 41.4742L8.75226 30.7832Z" fill="#9D3433"/>
<path d="M16.1242 41.4722L8.07422 53.9442L16.1202 64.3622C16.1202 55.9412 16.1292 49.0392 16.1332 48.3722H16.2822V41.6982L16.1242 41.4722Z" fill="#903332"/>
<path d="M13.0079 23.8491L8.75391 30.7841L16.1279 41.4731L16.2869 41.2281V32.7141H16.1379C16.1182 29.4919 15.0162 26.3698 13.0089 23.8491" fill="#903332"/>
<path d="M16.2821 41.2271L16.123 41.4731L16.2821 41.702V41.2271Z" fill="#873232"/>
</g>
<circle cx="65.5" cy="40.5" r="6.5" fill="white"/>
</svg>
